<svg width="278" height="42" viewBox="0 0 278 42" fill="none" xmlns="http://www.w3.org/2000/svg">
<path d="M19.24 41.22C15.92 41.22 12.84 40.48 10 39C7.2 37.52 4.94 35.32 3.22 32.4C1.5 29.44 0.64 25.74 0.64 21.3C0.64 16.94 1.52 13.24 3.28 10.2C5.08 7.12 7.4 4.78 10.24 3.18C13.12 1.58 16.2 0.779996 19.48 0.779996C22.04 0.779996 24.36 1.3 26.44 2.34C28.52 3.38 30.24 4.58 31.6 5.94L26.2 12.54C25.24 11.7 24.24 11.02 23.2 10.5C22.2 9.94 21.04 9.66 19.72 9.66C17.44 9.66 15.44 10.66 13.72 12.66C12.04 14.66 11.2 17.42 11.2 20.94C11.2 24.62 11.96 27.44 13.48 29.4C15.04 31.36 17.08 32.34 19.6 32.34C21.12 32.34 22.46 32 23.62 31.32C24.82 30.64 25.84 29.86 26.68 28.98L32.08 35.46C28.8 39.3 24.52 41.22 19.24 41.22ZM47.5563 21.54L46.8963 24.24H54.0963L53.4363 21.54C52.9563 19.7 52.4763 17.68 51.9963 15.48C51.5163 13.24 51.0363 11.14 50.5563 9.18H50.3163C49.9163 11.18 49.4763 13.28 48.9962 15.48C48.5163 17.68 48.0363 19.7 47.5563 21.54ZM57.8763 40.5L55.9563 32.22H45.0363L43.1163 40.5H32.5562L44.4363 1.5H56.9163L68.7963 40.5H57.8763ZM72.5153 40.5V1.5H83.5553L89.4353 17.46C89.7953 18.54 90.1353 19.68 90.4553 20.88C90.7753 22.04 91.1153 23.18 91.4753 24.3H91.7153C92.0753 23.18 92.4153 22.04 92.7353 20.88C93.0553 19.68 93.3953 18.54 93.7553 17.46L99.3953 1.5H110.435V40.5H101.075V28.98C101.075 26.98 101.235 24.66 101.555 22.02C101.875 19.34 102.155 17.02 102.395 15.06H102.155L98.9153 24.42L94.1153 37.32H88.5953L83.7953 24.42L80.6753 15.06H80.4353C80.6753 17.02 80.9553 19.34 81.2753 22.02C81.5953 24.66 81.7553 26.98 81.7553 28.98V40.5H72.5153ZM119.097 40.5V1.5H133.377C136.217 1.5 138.837 1.9 141.237 2.7C143.637 3.5 145.557 4.84 146.997 6.72C148.477 8.6 149.217 11.18 149.217 14.46C149.217 17.66 148.477 20.26 146.997 22.26C145.557 24.26 143.637 25.74 141.237 26.7C138.877 27.66 136.337 28.14 133.617 28.14H129.417V40.5H119.097ZM129.417 19.98H133.137C137.137 19.98 139.137 18.14 139.137 14.46C139.137 12.7 138.597 11.46 137.517 10.74C136.437 10.02 134.897 9.66 132.897 9.66H129.417V19.98ZM162.693 21.54L162.033 24.24H169.233L168.573 21.54C168.093 19.7 167.613 17.68 167.133 15.48C166.653 13.24 166.173 11.14 165.693 9.18H165.453C165.053 11.18 164.613 13.28 164.133 15.48C163.653 17.68 163.173 19.7 162.693 21.54ZM173.013 40.5L171.093 32.22H160.173L158.253 40.5H147.693L159.573 1.5H172.053L183.933 40.5H173.013ZM187.652 40.5V1.5H197.972V40.5H187.652ZM224.636 41.22C220.996 41.22 217.676 40.48 214.676 39C211.716 37.52 209.356 35.32 207.596 32.4C205.836 29.44 204.956 25.74 204.956 21.3C204.956 16.94 205.856 13.24 207.656 10.2C209.456 7.12 211.816 4.78 214.736 3.18C217.696 1.58 220.916 0.779996 224.396 0.779996C227.276 0.779996 229.776 1.3 231.896 2.34C234.016 3.38 235.756 4.58 237.116 5.94L231.716 12.54C230.756 11.7 229.736 11.02 228.656 10.5C227.616 9.94 226.316 9.66 224.756 9.66C222.116 9.66 219.916 10.66 218.156 12.66C216.396 14.66 215.516 17.42 215.516 20.94C215.516 24.62 216.336 27.44 217.976 29.4C219.656 31.36 222.236 32.34 225.716 32.34C226.996 32.34 227.996 32.1 228.716 31.62V26.22H222.956V17.82H237.836V36.42C236.476 37.74 234.616 38.88 232.256 39.84C229.936 40.76 227.396 41.22 224.636 41.22ZM245.425 40.5V1.5H255.985L264.625 18.9L268.345 27.66H268.585C268.345 25.58 268.065 23.18 267.745 20.46C267.425 17.74 267.265 15.18 267.265 12.78V1.5H277.105V40.5H266.545L257.905 23.04L254.185 14.34H253.945C254.185 16.58 254.465 19.02 254.785 21.66C255.105 24.3 255.265 26.82 255.265 29.22V40.5H245.425Z" fill="white"/>
</svg>
