<svg width="284" height="79" viewBox="0 0 284 79" fill="none" xmlns="http://www.w3.org/2000/svg">
<path d="M21.24 58.22C17.92 58.22 14.84 57.48 12 56C9.2 54.52 6.94 52.32 5.22 49.4C3.5 46.44 2.64 42.74 2.64 38.3C2.64 33.94 3.52 30.24 5.28 27.2C7.08 24.12 9.4 21.78 12.24 20.18C15.12 18.58 18.2 17.78 21.48 17.78C24.04 17.78 26.36 18.3 28.44 19.34C30.52 20.38 32.24 21.58 33.6 22.94L28.2 29.54C27.24 28.7 26.24 28.02 25.2 27.5C24.2 26.94 23.04 26.66 21.72 26.66C19.44 26.66 17.44 27.66 15.72 29.66C14.04 31.66 13.2 34.42 13.2 37.94C13.2 41.62 13.96 44.44 15.48 46.4C17.04 48.36 19.08 49.34 21.6 49.34C23.12 49.34 24.46 49 25.62 48.32C26.82 47.64 27.84 46.86 28.68 45.98L34.08 52.46C30.8 56.3 26.52 58.22 21.24 58.22ZM49.5563 38.54L48.8963 41.24H56.0963L55.4363 38.54C54.9563 36.7 54.4763 34.68 53.9963 32.48C53.5163 30.24 53.0363 28.14 52.5563 26.18H52.3163C51.9163 28.18 51.4763 30.28 50.9962 32.48C50.5163 34.68 50.0363 36.7 49.5563 38.54ZM59.8763 57.5L57.9563 49.22H47.0363L45.1163 57.5H34.5562L46.4363 18.5H58.9163L70.7963 57.5H59.8763ZM74.5153 57.5V18.5H85.5553L91.4353 34.46C91.7953 35.54 92.1353 36.68 92.4553 37.88C92.7753 39.04 93.1153 40.18 93.4753 41.3H93.7153C94.0753 40.18 94.4153 39.04 94.7353 37.88C95.0553 36.68 95.3953 35.54 95.7553 34.46L101.395 18.5H112.435V57.5H103.075V45.98C103.075 43.98 103.235 41.66 103.555 39.02C103.875 36.34 104.155 34.02 104.395 32.06H104.155L100.915 41.42L96.1153 54.32H90.5953L85.7953 41.42L82.6753 32.06H82.4353C82.6753 34.02 82.9553 36.34 83.2753 39.02C83.5953 41.66 83.7553 43.98 83.7553 45.98V57.5H74.5153ZM121.097 57.5V18.5H135.377C138.217 18.5 140.837 18.9 143.237 19.7C145.637 20.5 147.557 21.84 148.997 23.72C150.477 25.6 151.217 28.18 151.217 31.46C151.217 34.66 150.477 37.26 148.997 39.26C147.557 41.26 145.637 42.74 143.237 43.7C140.877 44.66 138.337 45.14 135.617 45.14H131.417V57.5H121.097ZM131.417 36.98H135.137C139.137 36.98 141.137 35.14 141.137 31.46C141.137 29.7 140.597 28.46 139.517 27.74C138.437 27.02 136.897 26.66 134.897 26.66H131.417V36.98ZM164.693 38.54L164.033 41.24H171.233L170.573 38.54C170.093 36.7 169.613 34.68 169.133 32.48C168.653 30.24 168.173 28.14 167.693 26.18H167.453C167.053 28.18 166.613 30.28 166.133 32.48C165.653 34.68 165.173 36.7 164.693 38.54ZM175.013 57.5L173.093 49.22H162.173L160.253 57.5H149.693L161.573 18.5H174.053L185.933 57.5H175.013ZM189.652 57.5V18.5H199.972V57.5H189.652ZM226.636 58.22C222.996 58.22 219.676 57.48 216.676 56C213.716 54.52 211.356 52.32 209.596 49.4C207.836 46.44 206.956 42.74 206.956 38.3C206.956 33.94 207.856 30.24 209.656 27.2C211.456 24.12 213.816 21.78 216.736 20.18C219.696 18.58 222.916 17.78 226.396 17.78C229.276 17.78 231.776 18.3 233.896 19.34C236.016 20.38 237.756 21.58 239.116 22.94L233.716 29.54C232.756 28.7 231.736 28.02 230.656 27.5C229.616 26.94 228.316 26.66 226.756 26.66C224.116 26.66 221.916 27.66 220.156 29.66C218.396 31.66 217.516 34.42 217.516 37.94C217.516 41.62 218.336 44.44 219.976 46.4C221.656 48.36 224.236 49.34 227.716 49.34C228.996 49.34 229.996 49.1 230.716 48.62V43.22H224.956V34.82H239.836V53.42C238.476 54.74 236.616 55.88 234.256 56.84C231.936 57.76 229.396 58.22 226.636 58.22ZM247.425 57.5V18.5H257.985L266.625 35.9L270.345 44.66H270.585C270.345 42.58 270.065 40.18 269.745 37.46C269.425 34.74 269.265 32.18 269.265 29.78V18.5H279.105V57.5H268.545L259.905 40.04L256.185 31.34H255.945C256.185 33.58 256.465 36.02 256.785 38.66C257.105 41.3 257.265 43.82 257.265 46.22V57.5H247.425Z" fill="#F3F3F3"/>
<circle cx="194.5" cy="26" r="11.5" fill="#F3F3F3" stroke="#5C5C5C" stroke-width="5"/>
</svg>
